{
  "accessors": [
    {
      "bufferView": 2,
      "componentType": 5126,
      "count": 616,
      "max": [
        33.64045333862305,
        19.207199096679688,
        15.121968269348145
      ],
      "min": [
        -72.33924102783203,
        -109.36654663085938,
        -12.289949417114258
      ],
      "type": "VEC3"
    },
    {
      "bufferView": 2,
      "byteOffset": 7392,
      "componentType": 5126,
      "count": 616,
      "max": [
        0.999955415725708,
        0.998780369758606,
        0.9983510375022888
      ],
      "min": [
        -0.999955415725708,
        -0.9997337460517883,
        -0.9983513951301575
      ],
      "type": "VEC3"
    },
    {
      "bufferView": 3,
      "componentType": 5126,
      "count": 616,
      "max": [
        1.0,
        0.9999420046806335,
        0.9998365044593811,
        1.0
      ],
      "min": [
        -1.0,
        -0.9999408721923828,
        -0.9980621337890625,
        1.0
      ],
      "type": "VEC4"
    },
    {
      "bufferView": 1,
      "componentType": 5126,
      "count": 616,
      "max": [
        0.9792821407318115,
        0.8586090207099915
      ],
      "min": [
        0.018573671579360962,
        0.008183258585631847
      ],
      "type": "VEC2"
    },
    {
      "bufferView": 0,
      "componentType": 5125,
      "count": 2736,
      "type": "SCALAR"
    },
    {
      "bufferView": 2,
      "byteOffset": 14784,
      "componentType": 5126,
      "count": 4,
      "max": [
        13.131874084472656,
        9.384392738342285,
        -2.384185791015625e-06
      ],
      "min": [
        -13.676406860351563,
        -15.985038757324219,
        -14.6583251953125
      ],
      "type": "VEC3"
    },
    {
      "bufferView": 2,
      "byteOffset": 14832,
      "componentType": 5126,
      "count": 4,
      "max": [
        8.256127159711468e-08,
        0.5002886056900024,
        0.8658587336540222
      ],
      "min": [
        8.256126449168733e-08,
        0.5002886056900024,
        0.8658587336540222
      ],
      "type": "VEC3"
    },
    {
      "bufferView": 3,
      "byteOffset": 9856,
      "componentType": 5126,
      "count": 4,
      "max": [
        1.0,
        2.4984549540363332e-08,
        -8.790163263938666e-08,
        1.0
      ],
      "min": [
        1.0,
        -1.2894307843680508e-08,
        -1.0978784104054284e-07,
        1.0
      ],
      "type": "VEC4"
    },
    {
      "bufferView": 1,
      "byteOffset": 4928,
      "componentType": 5126,
      "count": 4,
      "max": [
        0.3265823423862457,
        0.669221818447113
      ],
      "min": [
        0.007535996381193399,
        0.32052454352378845
      ],
      "type": "VEC2"
    },
    {
      "bufferView": 0,
      "byteOffset": 10944,
      "componentType": 5125,
      "count": 6,
      "type": "SCALAR"
    },
    {
      "bufferView": 2,
      "byteOffset": 14880,
      "componentType": 5126,
      "count": 124,
      "max": [
        34.28208541870117,
        125.77922821044922,
        0.01784515380859375
      ],
      "min": [
        -73.33299255371094,
        -147.57826232910156,
        -66.9141845703125
      ],
      "type": "VEC3"
    },
    {
      "bufferView": 2,
      "byteOffset": 16368,
      "componentType": 5126,
      "count": 124,
      "max": [
        1.0,
        0.9610313773155212,
        0.9999999403953552
      ],
      "min": [
        -1.0,
        -0.999943196773529,
        -0.9968839287757874
      ],
      "type": "VEC3"
    },
    {
      "bufferView": 3,
      "byteOffset": 9920,
      "componentType": 5126,
      "count": 124,
      "max": [
        1.0,
        0.961094856262207,
        0.2766609489917755,
        1.0
      ],
      "min": [
        -1.0,
        -0.960968554019928,
        -1.0,
        1.0
      ],
      "type": "VEC4"
    },
    {
      "bufferView": 1,
      "byteOffset": 4960,
      "componentType": 5126,
      "count": 124,
      "max": [
        0.7967394590377808,
        0.9545442461967468
      ],
      "min": [
        0.4238605499267578,
        0.12971919775009155
      ],
      "type": "VEC2"
    },
    {
      "bufferView": 0,
      "byteOffset": 10968,
      "componentType": 5125,
      "count": 324,
      "type": "SCALAR"
    },
    {
      "bufferView": 2,
      "byteOffset": 17856,
      "componentType": 5126,
      "count": 28,
      "max": [
        -134.5657196044922,
        40.33421325683594,
        233.3740997314453
      ],
      "min": [
        -156.47901916503906,
        -78.10331726074219,
        123.17422485351563
      ],
      "type": "VEC3"
    },
    {
      "bufferView": 2,
      "byteOffset": 18192,
      "componentType": 5126,
      "count": 28,
      "max": [
        -0.5011560320854187,
        0.712342381477356,
        0.8653570413589478
      ],
      "min": [
        -0.9886236190795898,
        -0.7124386429786682,
        -0.5797871351242065
      ],
      "type": "VEC3"
    },
    {
      "bufferView": 3,
      "byteOffset": 11904,
      "componentType": 5126,
      "count": 28,
      "max": [
        0.7158778309822083,
        -0.6966370344161987,
        0.22891288995742798,
        1.0
      ],
      "min": [
        -0.7137699723243713,
        -1.0,
        -0.21091227233409882,
        1.0
      ],
      "type": "VEC4"
    },
    {
      "bufferView": 1,
      "byteOffset": 5952,
      "componentType": 5126,
      "count": 28,
      "max": [
        0.34939730167388916,
        0.9995121359825134
      ],
      "min": [
        0.0007000591140240431,
        0.6703835725784302
      ],
      "type": "VEC2"
    },
    {
      "bufferView": 0,
      "byteOffset": 12264,
      "componentType": 5125,
      "count": 54,
      "type": "SCALAR"
    },
    {
      "bufferView": 2,
      "byteOffset": 18528,
      "componentType": 5126,
      "count": 66,
      "max": [
        27.95407485961914,
        125.77922058105469,
        16.991111755371094
      ],
      "min": [
        -79.66096496582031,
        -147.57827758789063,
        -66.91419982910156
      ],
      "type": "VEC3"
    },
    {
      "bufferView": 2,
      "byteOffset": 19320,
      "componentType": 5126,
      "count": 66,
      "max": [
        0.03226495906710625,
        1.0,
        0.9884277582168579
      ],
      "min": [
        -0.03226524963974953,
        -0.9687742590904236,
        -1.0
      ],
      "type": "VEC3"
    },
    {
      "bufferView": 3,
      "byteOffset": 12352,
      "componentType": 5126,
      "count": 66,
      "max": [
        1.0,
        0.029363485053181648,
        0.01590011827647686,
        1.0
      ],
      "min": [
        -1.0,
        -0.02935536950826645,
        -0.015888912603259087,
        1.0
      ],
      "type": "VEC4"
    },
    {
      "bufferView": 1,
      "byteOffset": 6176,
      "componentType": 5126,
      "count": 66,
      "max": [
        0.5816552042961121,
        0.9993889331817627
      ],
      "min": [
        0.32760435342788696,
        0.30099329352378845
      ],
      "type": "VEC2"
    },
    {
      "bufferView": 0,
      "byteOffset": 12480,
      "componentType": 5125,
      "count": 204,
      "type": "SCALAR"
    },
    {
      "bufferView": 2,
      "byteOffset": 20112,
      "componentType": 5126,
      "count": 78,
      "max": [
        31.595623016357422,
        15.985061645507813,
        16.99109649658203
      ],
      "min": [
        -83.30252075195313,
        -152.87599182128906,
        -72.83417510986328
      ],
      "type": "VEC3"
    },
    {
      "bufferView": 2,
      "byteOffset": 21048,
      "componentType": 5126,
      "count": 78,
      "max": [
        1.0,
        1.0,
        1.0
      ],
      "min": [
        -1.0,
        -0.911706268787384,
        -1.0
      ],
      "type": "VEC3"
    },
    {
      "bufferView": 3,
      "byteOffset": 13408,
      "componentType": 5126,
      "count": 78,
      "max": [
        1.0,
        1.0,
        0.9656379818916321,
        1.0
      ],
      "min": [
        -1.0,
        -1.0,
        -0.9653956294059753,
        1.0
      ],
      "type": "VEC4"
    },
    {
      "bufferView": 1,
      "byteOffset": 6704,
      "componentType": 5126,
      "count": 78,
      "max": [
        0.9308913946151733,
        0.9991384148597717
      ],
      "min": [
        0.07690148800611496,
        0.004565643612295389
      ],
      "type": "VEC2"
    },
    {
      "bufferView": 0,
      "byteOffset": 13296,
      "componentType": 5125,
      "count": 132,
      "type": "SCALAR"
    },
    {
      "bufferView": 2,
      "byteOffset": 21984,
      "componentType": 5126,
      "count": 18,
      "max": [
        -32.45252990722656,
        -14.526390075683594,
        16.99109649658203
      ],
      "min": [
        -57.466087341308594,
        -26.788036346435547,
        0.16807588934898376
      ],
      "type": "VEC3"
    },
    {
      "bufferView": 2,
      "byteOffset": 22200,
      "componentType": 5126,
      "count": 18,
      "max": [
        1.0,
        3.165955149597721e-06,
        2.0344441509223543e-06
      ],
      "min": [
        -1.0,
        -6.48248715151567e-06,
        -1.0237001788482303e-06
      ],
      "type": "VEC3"
    },
    {
      "bufferView": 3,
      "byteOffset": 14656,
      "componentType": 5126,
      "count": 18,
      "max": [
        1.0358266990806442e-06,
        0.0038530908059328794,
        -0.9999926686286926,
        1.0
      ],
      "min": [
        -2.059277903754264e-06,
        0.003832093672826886,
        -0.9999927282333374,
        1.0
      ],
      "type": "VEC4"
    },
    {
      "bufferView": 1,
      "byteOffset": 7328,
      "componentType": 5126,
      "count": 18,
      "max": [
        0.4285183250904083,
        0.31936222314834595
      ],
      "min": [
        0.050568874925374985,
        0.14033247530460358
      ],
      "type": "VEC2"
    },
    {
      "bufferView": 0,
      "byteOffset": 13824,
      "componentType": 5125,
      "count": 42,
      "type": "SCALAR"
    },
    {
      "bufferView": 2,
      "byteOffset": 22416,
      "componentType": 5126,
      "count": 120,
      "max": [
        55.61668395996094,
        11.93465805053711,
        18.817947387695313
      ],
      "min": [
        -22.93355941772461,
        -37.10646057128906,
        -1.812700629234314
      ],
      "type": "VEC3"
    },
    {
      "bufferView": 2,
      "byteOffset": 23856,
      "componentType": 5126,
      "count": 120,
      "max": [
        1.0,
        1.0,
        1.0
      ],
      "min": [
        -1.0,
        -1.0,
        -0.02798195369541645
      ],
      "type": "VEC3"
    },
    {
      "bufferView": 3,
      "byteOffset": 14944,
      "componentType": 5126,
      "count": 120,
      "max": [
        1.0,
        1.0,
        1.0,
        1.0
      ],
      "min": [
        -1.0,
        -1.0,
        -1.0,
        -1.0
      ],
      "type": "VEC4"
    },
    {
      "bufferView": 1,
      "byteOffset": 7472,
      "componentType": 5126,
      "count": 120,
      "max": [
        0.902060866355896,
        0.9125607013702393
      ],
      "min": [
        0.10186726599931717,
        0.0030796751379966736
      ],
      "type": "VEC2"
    },
    {
      "bufferView": 0,
      "byteOffset": 13992,
      "componentType": 5125,
      "count": 192,
      "type": "SCALAR"
    }
  ],
  "asset": {
    "extras": {
      "author": "Nader.Kaseb (https://sketchfab.com/Nader.Kaseb)",
      "license": "CC-BY-4.0 (http://creativecommons.org/licenses/by/4.0/)",
      "source": "https://sketchfab.com/3d-models/train-ticket-machine-1dcdc3cc7052413f8822878470bca9c6",
      "title": "Train Ticket Machine"
    },
    "generator": "Sketchfab-15.18.0",
    "version": "2.0"
  },
  "bufferViews": [
    {
      "buffer": 0,
      "byteLength": 14760,
      "name": "floatBufferViews",
      "target": 34963
    },
    {
      "buffer": 0,
      "byteLength": 8432,
      "byteOffset": 14760,
      "byteStride": 8,
      "name": "floatBufferViews",
      "target": 34962
    },
    {
      "buffer": 0,
      "byteLength": 25296,
      "byteOffset": 23192,
      "byteStride": 12,
      "name": "floatBufferViews",
      "target": 34962
    },
    {
      "buffer": 0,
      "byteLength": 16864,
      "byteOffset": 48488,
      "byteStride": 16,
      "name": "floatBufferViews",
      "target": 34962
    }
  ],
  "buffers": [
    {
      "byteLength": 65352,
      "uri": "scene.bin"
    }
  ],
  "extensionsUsed": [
    "KHR_materials_specular"
  ],
  "images": [
    {
      "uri": "textures/01_-_Default_baseColor.png"
    },
    {
      "uri": "textures/01_-_Default_metallicRoughness.png"
    },
    {
      "uri": "textures/01_-_Default_emissive.png"
    },
    {
      "uri": "textures/01_-_Default_normal.png"
    }
  ],
  "materials": [
    {
      "doubleSided": true,
      "emissiveFactor": [
        1.0,
        1.0,
        1.0
      ],
      "emissiveTexture": {
        "index": 2
      },
      "extensions": {
        "KHR_materials_specular": {
          "specularColorFactor": [
            1.0,
            1.0,
            1.0
          ],
          "specularFactor": 0.2319697062
        }
      },
      "name": "01_-_Default",
      "normalTexture": {
        "index": 3
      },
      "occlusionTexture": {
        "index": 1
      },
      "pbrMetallicRoughness": {
        "baseColorTexture": {
          "index": 0
        },
        "metallicRoughnessTexture": {
          "index": 1
        }
      }
    }
  ],
  "meshes": [
    {
      "name": "3_01 - Default_0",
      "primitives": [
        {
          "attributes": {
            "NORMAL": 1,
            "POSITION": 0,
            "TANGENT": 2,
            "TEXCOORD_0": 3
          },
          "indices": 4,
          "material": 0,
          "mode": 4
        }
      ]
    },
    {
      "name": "1_01 - Default_0",
      "primitives": [
        {
          "attributes": {
            "NORMAL": 6,
            "POSITION": 5,
            "TANGENT": 7,
            "TEXCOORD_0": 8
          },
          "indices": 9,
          "material": 0,
          "mode": 4
        }
      ]
    },
    {
      "name": "2_01 - Default_0",
      "primitives": [
        {
          "attributes": {
            "NORMAL": 11,
            "POSITION": 10,
            "TANGENT": 12,
            "TEXCOORD_0": 13
          },
          "indices": 14,
          "material": 0,
          "mode": 4
        }
      ]
    },
    {
      "name": "8_01 - Default_0",
      "primitives": [
        {
          "attributes": {
            "NORMAL": 16,
            "POSITION": 15,
            "TANGENT": 17,
            "TEXCOORD_0": 18
          },
          "indices": 19,
          "material": 0,
          "mode": 4
        }
      ]
    },
    {
      "name": "4_01 - Default_0",
      "primitives": [
        {
          "attributes": {
            "NORMAL": 21,
            "POSITION": 20,
            "TANGENT": 22,
            "TEXCOORD_0": 23
          },
          "indices": 24,
          "material": 0,
          "mode": 4
        }
      ]
    },
    {
      "name": "5_01 - Default_0",
      "primitives": [
        {
          "attributes": {
            "NORMAL": 26,
            "POSITION": 25,
            "TANGENT": 27,
            "TEXCOORD_0": 28
          },
          "indices": 29,
          "material": 0,
          "mode": 4
        }
      ]
    },
    {
      "name": "7_01 - Default_0",
      "primitives": [
        {
          "attributes": {
            "NORMAL": 31,
            "POSITION": 30,
            "TANGENT": 32,
            "TEXCOORD_0": 33
          },
          "indices": 34,
          "material": 0,
          "mode": 4
        }
      ]
    },
    {
      "name": "6_01 - Default_0",
      "primitives": [
        {
          "attributes": {
            "NORMAL": 36,
            "POSITION": 35,
            "TANGENT": 37,
            "TEXCOORD_0": 38
          },
          "indices": 39,
          "material": 0,
          "mode": 4
        }
      ]
    }
  ],
  "nodes": [
    {
      "children": [
        1
      ],
      "matrix": [
        1.0,
        0.0,
        0.0,
        0.0,
        0.0,
        2.220446049250313e-16,
        -1.0,
        0.0,
        0.0,
        1.0,
        2.220446049250313e-16,
        0.0,
        0.0,
        0.0,
        0.0,
        1.0
      ],
      "name": "Sketchfab_model"
    },
    {
      "children": [
        2
      ],
      "matrix": [
        1.0,
        0.0,
        0.0,
        0.0,
        0.0,
        0.0,
        1.0,
        0.0,
        0.0,
        -1.0,
        0.0,
        0.0,
        0.0,
        0.0,
        0.0,
        1.0
      ],
      "name": "4b596651399e4f6483626b72039300ab.fbx"
    },
    {
      "children": [
        3,
        6,
        9,
        12,
        15,
        18,
        21,
        24
      ],
      "name": "RootNode"
    },
    {
      "children": [
        4
      ],
      "matrix": [
        1.8025953311560888e-07,
        0.0,
        1.1064250469207617,
        0.0,
        -1.8025953353920818e-07,
        1.1064250469207617,
        2.936800777716598e-14,
        0.0,
        -1.106425046920747,
        -1.8025953353921056e-07,
        1.8025953311560888e-07,
        0.0,
        -0.0002270305121783167,
        6.103515625e-05,
        -409.4090881347656,
        1.0
      ],
      "name": "3"
    },
    {
      "children": [
        5
      ],
      "matrix": [
        1.0,
        0.0,
        -0.0,
        0.0,
        0.0,
        1.0,
        0.0,
        0.0,
        0.0,
        0.0,
        1.0,
        0.0,
        -37.923622131347656,
        152.8759765625,
        14.24722957611084,
        1.0
      ],
      "name": "Object_4"
    },
    {
      "mesh": 0,
      "name": "3_01 - Default_0"
    },
    {
      "children": [
        7
      ],
      "matrix": [
        1.8025953311560888e-07,
        0.0,
        1.1064250469207617,
        0.0,
        -1.8025953353920818e-07,
        1.1064250469207617,
        2.936800777716598e-14,
        0.0,
        -1.106425046920747,
        -1.8025953353921056e-07,
        1.8025953311560888e-07,
        0.0,
        -0.0002270305121783167,
        6.103515625e-05,
        -409.4090881347656,
        1.0
      ],
      "name": "1"
    },
    {
      "children": [
        8
      ],
      "matrix": [
        1.0,
        0.0,
        -0.0,
        0.0,
        0.0,
        1.0,
        0.0,
        0.0,
        0.0,
        0.0,
        1.0,
        0.0,
        -37.923622131347656,
        152.8759765625,
        14.24722957611084,
        1.0
      ],
      "name": "Object_7"
    },
    {
      "mesh": 1,
      "name": "1_01 - Default_0"
    },
    {
      "children": [
        10
      ],
      "matrix": [
        1.8025953311560888e-07,
        0.0,
        1.1064250469207617,
        0.0,
        -1.8025953353920818e-07,
        1.1064250469207617,
        2.936800777716598e-14,
        0.0,
        -1.106425046920747,
        -1.8025953353921056e-07,
        1.8025953311560888e-07,
        0.0,
        -0.0002270305121783167,
        6.103515625e-05,
        -409.4090881347656,
        1.0
      ],
      "name": "2"
    },
    {
      "children": [
        11
      ],
      "matrix": [
        1.0,
        0.0,
        -0.0,
        0.0,
        0.0,
        1.0,
        0.0,
        0.0,
        0.0,
        0.0,
        1.0,
        0.0,
        -37.923622131347656,
        152.8759765625,
        14.24722957611084,
        1.0
      ],
      "name": "Object_10"
    },
    {
      "mesh": 2,
      "name": "2_01 - Default_0"
    },
    {
      "children": [
        13
      ],
      "matrix": [
        -8.365270331834919e-06,
        3.920210093213771e-17,
        -0.7062022685509187,
        0.0,
        0.04828589452911052,
        0.7045636241259237,
        -5.719672378741248e-07,
        0.0,
        0.7045636240764934,
        -0.048285894532498125,
        -8.345859881461312e-06,
        0.0,
        -3.2940521240234375,
        254.18325805664063,
        -472.531005859375,
        1.0
      ],
      "name": "8"
    },
    {
      "children": [
        14
      ],
      "matrix": [
        6.123233995736766e-17,
        0.0,
        1.0,
        0.0,
        0.9999999978189369,
        -6.604639498585793e-05,
        -6.123233982381606e-17,
        0.0,
        6.604639498585793e-05,
        0.9999999978189369,
        -4.044175310732636e-21,
        0.0,
        18.865028381347656,
        -178.27542114257813,
        145.5233612060547,
        1.0
      ],
      "name": "Object_13"
    },
    {
      "mesh": 3,
      "name": "8_01 - Default_0"
    },
    {
      "children": [
        16
      ],
      "matrix": [
        1.8025953311560888e-07,
        0.0,
        1.1064250469207617,
        0.0,
        -1.8025953353920818e-07,
        1.1064250469207617,
        2.936800777716598e-14,
        0.0,
        -1.106425046920747,
        -1.8025953353921056e-07,
        1.8025953311560888e-07,
        0.0,
        -0.0002273365535074845,
        6.072911128285341e-05,
        -402.4076232910156,
        1.0
      ],
      "name": "4"
    },
    {
      "children": [
        17
      ],
      "matrix": [
        1.0,
        0.0,
        -0.0,
        0.0,
        0.0,
        1.0,
        0.0,
        0.0,
        0.0,
        0.0,
        1.0,
        0.0,
        -37.923622131347656,
        152.8759765625,
        14.24722957611084,
        1.0
      ],
      "name": "Object_16"
    },
    {
      "mesh": 4,
      "name": "4_01 - Default_0"
    },
    {
      "children": [
        19
      ],
      "matrix": [
        1.8025953311560888e-07,
        0.0,
        1.1064250469207617,
        0.0,
        -1.8025953353920818e-07,
        1.1064250469207617,
        2.936800777716598e-14,
        0.0,
        -1.106425046920747,
        -1.8025953353921056e-07,
        1.8025953311560888e-07,
        0.0,
        -0.0002273365535074845,
        6.072911128285341e-05,
        -402.4076232910156,
        1.0
      ],
      "name": "5"
    },
    {
      "children": [
        20
      ],
      "matrix": [
        1.0,
        0.0,
        -0.0,
        0.0,
        0.0,
        1.0,
        0.0,
        0.0,
        0.0,
        0.0,
        1.0,
        0.0,
        -37.923622131347656,
        152.8759765625,
        14.24722957611084,
        1.0
      ],
      "name": "Object_19"
    },
    {
      "mesh": 5,
      "name": "5_01 - Default_0"
    },
    {
      "children": [
        22
      ],
      "matrix": [
        1.8025953311560888e-07,
        0.0,
        1.1064250469207617,
        0.0,
        -1.8025953353920818e-07,
        1.1064250469207617,
        2.936800777716598e-14,
        0.0,
        -1.106425046920747,
        -1.8025953353921056e-07,
        1.8025953311560888e-07,
        0.0,
        -0.0002273365535074845,
        6.072911128285341e-05,
        -402.4076232910156,
        1.0
      ],
      "name": "7"
    },
    {
      "children": [
        23
      ],
      "matrix": [
        1.0,
        0.0,
        -0.0,
        0.0,
        0.0,
        1.0,
        0.0,
        0.0,
        0.0,
        0.0,
        1.0,
        0.0,
        -37.923622131347656,
        152.8759765625,
        14.24722957611084,
        1.0
      ],
      "name": "Object_22"
    },
    {
      "mesh": 6,
      "name": "7_01 - Default_0"
    },
    {
      "children": [
        25
      ],
      "matrix": [
        1.6292068460987963e-07,
        0.0,
        0.9999999999999867,
        0.0,
        -4.371138822550499e-08,
        0.999999999999999,
        7.121489295963928e-15,
        0.0,
        -0.9999999999999858,
        -4.371138822550557e-08,
        1.6292068460987963e-07,
        0.0,
        -15.745152473449707,
        172.52520751953125,
        -494.64727783203125,
        1.0
      ],
      "name": "6"
    },
    {
      "mesh": 7,
      "name": "6_01 - Default_0"
    }
  ],
  "samplers": [
    {
      "magFilter": 9729,
      "minFilter": 9987,
      "wrapS": 10497,
      "wrapT": 10497
    }
  ],
  "scene": 0,
  "scenes": [
    {
      "name": "Sketchfab_Scene",
      "nodes": [
        0
      ]
    }
  ],
  "textures": [
    {
      "sampler": 0,
      "source": 0
    },
    {
      "sampler": 0,
      "source": 1
    },
    {
      "sampler": 0,
      "source": 2
    },
    {
      "sampler": 0,
      "source": 3
    }
  ]
}
